<?xml version="1.0" encoding="utf-8"?>
<!-- Generator: Adobe Illustrator 19.2.1, SVG Export Plug-In . SVG Version: 6.00 Build 0)  -->
<svg version="1.1" id="レイヤー_1" xmlns="http://www.w3.org/2000/svg" xmlns:xlink="http://www.w3.org/1999/xlink" x="0px"
	 y="0px" viewBox="0 0 256.5 144.2" style="enable-background:new 0 0 256.5 144.2;" xml:space="preserve">
<style type="text/css">
	.st0{fill:#262626;}
</style>
<title>logo_atlshowcase</title>
<rect x="62" y="0.5" class="st0" width="28" height="28"/>
<rect x="62" y="37.5" class="st0" width="28" height="28"/>
<rect x="62" y="74.5" class="st0" width="28" height="28"/>
<rect x="122" y="0.5" class="st0" width="28" height="28"/>
<rect x="122" y="37.5" class="st0" width="28" height="28"/>
<rect x="122" y="74.5" class="st0" width="28" height="28"/>
<rect x="182" y="0.5" class="st0" width="28" height="28"/>
<rect x="182" y="37.5" class="st0" width="28" height="28"/>
<rect x="182" y="74.5" class="st0" width="28" height="28"/>
<rect x="96" y="0.5" class="st0" width="80" height="3"/>
<rect x="182" y="99.5" class="st0" width="74" height="3"/>
<polygon class="st0" points="3.7,102.5 0.2,102.5 63,0 65.8,1.5 "/>
<rect x="17" y="74.5" class="st0" width="73" height="3"/>
<path class="st0" d="M2,139.5c0.5,0.9,1.3,1.6,2.2,2.1c0.9,0.5,2,0.7,3,0.7c0.7,0,1.4-0.1,2-0.3c0.6-0.2,1.1-0.5,1.6-0.9
	c0.5-0.4,0.8-0.9,1.1-1.4c0.3-0.6,0.4-1.2,0.4-1.8c0-0.7-0.1-1.4-0.5-2c-0.3-0.5-0.8-0.9-1.3-1.3c-0.6-0.3-1.2-0.6-1.9-0.9l-2.1-0.7
	c-0.7-0.2-1.4-0.5-2.1-0.8c-0.7-0.3-1.3-0.7-1.9-1.2c-0.6-0.5-1-1.1-1.3-1.8c-0.4-0.9-0.5-1.8-0.5-2.7c0-0.9,0.2-1.8,0.6-2.7
	c0.4-0.8,0.9-1.5,1.6-2c0.7-0.5,1.5-0.9,2.3-1.2c0.9-0.3,1.8-0.4,2.8-0.4c1.2,0,2.3,0.2,3.4,0.7c1.1,0.5,2,1.2,2.7,2.2l-1.8,1.3
	c-0.5-0.7-1.1-1.3-1.9-1.7c-0.8-0.4-1.7-0.6-2.5-0.6c-0.7,0-1.4,0.1-2,0.3c-0.6,0.2-1.1,0.4-1.6,0.8c-0.5,0.4-0.8,0.8-1.1,1.3
	c-0.3,0.6-0.4,1.2-0.4,1.9c-0.1,0.9,0.2,1.9,0.9,2.6c0.6,0.6,1.3,1.1,2.2,1.4c0.9,0.4,1.9,0.7,2.8,0.9c1,0.3,1.9,0.6,2.8,1.1
	c0.9,0.4,1.6,1.1,2.2,1.9c0.6,1,0.9,2.1,0.9,3.3c0,0.9-0.2,1.9-0.6,2.7c-0.4,0.8-0.9,1.5-1.5,2c-0.7,0.6-1.4,1-2.3,1.2
	c-0.9,0.3-1.8,0.4-2.7,0.4c-1.4,0-2.8-0.2-4.1-0.8c-1.3-0.6-2.4-1.5-3.2-2.6L2,139.5z"/>
<path class="st0" d="M30.7,121h2.1v10h12.7v-10h2.1v22.7h-2.1v-10.8H32.8v10.8h-2.1V121z"/>
<path class="st0" d="M63.9,132.3c0-1.6,0.3-3.2,0.9-4.8c0.5-1.4,1.4-2.7,2.4-3.8c1-1.1,2.3-1.9,3.7-2.5c3.1-1.2,6.4-1.2,9.5,0
	c1.4,0.6,2.7,1.4,3.7,2.5c1,1.1,1.9,2.4,2.4,3.8c1.2,3.1,1.2,6.5,0,9.5c-0.5,1.4-1.4,2.7-2.4,3.8c-1,1.1-2.3,1.9-3.7,2.5
	c-3.1,1.2-6.4,1.2-9.5,0c-1.4-0.6-2.7-1.4-3.7-2.5c-1-1.1-1.9-2.4-2.4-3.8C64.1,135.6,63.9,134,63.9,132.3z M66,132.3
	c0,1.3,0.2,2.7,0.7,3.9c0.4,1.2,1.1,2.3,1.9,3.2c0.8,0.9,1.9,1.6,3,2.1c2.6,1,5.4,1,8,0c1.1-0.5,2.2-1.2,3-2.1
	c0.8-0.9,1.5-2,1.9-3.2c0.9-2.5,0.9-5.3,0-7.9c-0.4-1.2-1.1-2.3-1.9-3.2c-0.8-0.9-1.9-1.6-3-2.1c-2.6-1-5.4-1-8,0
	c-1.1,0.5-2.2,1.2-3,2.1c-0.8,0.9-1.5,2-1.9,3.2C66.2,129.7,66,131,66,132.3L66,132.3z"/>
<path class="st0" d="M100.6,121h2.2l5.6,20.1h0.1l5.7-20.1h2.7l5.7,20.1h0.1l5.6-20.1h2.2l-6.6,22.7h-2.6l-5.7-20.2h-0.1l-5.7,20.2
	h-2.6L100.6,121z"/>
<path class="st0" d="M163.9,140.1c-1,1.4-2.3,2.5-3.8,3.2c-1.5,0.7-3,1-4.6,1c-1.6,0-3.2-0.3-4.8-0.9c-1.4-0.6-2.7-1.4-3.7-2.5
	c-1-1.1-1.9-2.4-2.4-3.8c-1.2-3.1-1.2-6.5,0-9.5c0.5-1.4,1.4-2.7,2.4-3.8c1-1.1,2.3-1.9,3.7-2.5c1.5-0.6,3.1-0.9,4.8-0.9
	c1.5,0,2.9,0.3,4.3,0.8c1.4,0.6,2.6,1.5,3.5,2.7l-1.7,1.4c-0.7-1-1.6-1.8-2.7-2.3c-1.1-0.5-2.2-0.7-3.4-0.7c-1.4,0-2.7,0.2-4,0.8
	c-1.1,0.5-2.2,1.2-3,2.1c-0.8,0.9-1.5,2-1.9,3.2c-0.9,2.5-0.9,5.3,0,7.9c0.4,1.2,1.1,2.3,1.9,3.2c0.8,0.9,1.9,1.6,3,2.1
	c1.3,0.5,2.6,0.8,4,0.8c1.2,0,2.5-0.3,3.6-0.9c0.6-0.3,1.2-0.7,1.7-1.1c0.5-0.5,1-1,1.4-1.6L163.9,140.1z"/>
<path class="st0" d="M186.3,121h2.2l9.6,22.7h-2.4l-2.5-6h-12l-2.6,6h-2.2L186.3,121z M187.3,123.3l-5.3,12.4h10.4L187.3,123.3z"/>
<path class="st0" d="M213.4,139.5c0.5,0.9,1.3,1.6,2.2,2.1c0.9,0.5,2,0.7,3,0.7c0.7,0,1.4-0.1,2-0.3c0.6-0.2,1.1-0.5,1.6-0.9
	c0.5-0.4,0.8-0.9,1.1-1.4c0.3-0.6,0.4-1.2,0.4-1.8c0-0.7-0.1-1.4-0.5-2c-0.3-0.5-0.8-0.9-1.3-1.3c-0.6-0.3-1.2-0.6-1.9-0.9l-2.1-0.7
	c-0.7-0.2-1.4-0.5-2.1-0.8c-0.7-0.3-1.3-0.7-1.9-1.2c-0.6-0.5-1-1.1-1.3-1.8c-0.4-0.9-0.5-1.8-0.5-2.7c0-0.9,0.2-1.8,0.6-2.7
	c0.4-0.8,0.9-1.5,1.6-2c0.7-0.5,1.5-0.9,2.3-1.2c0.9-0.3,1.8-0.4,2.8-0.4c1.2,0,2.3,0.2,3.4,0.7c1.1,0.5,2,1.2,2.7,2.2l-1.8,1.3
	c-0.5-0.7-1.1-1.3-1.9-1.7c-0.8-0.4-1.7-0.6-2.5-0.6c-0.7,0-1.4,0.1-2,0.3c-0.6,0.2-1.1,0.4-1.6,0.8c-0.5,0.4-0.8,0.8-1.1,1.3
	c-0.3,0.6-0.4,1.2-0.4,1.9c-0.1,0.9,0.2,1.9,0.9,2.6c0.6,0.6,1.3,1.1,2.2,1.4c0.9,0.4,1.9,0.7,2.8,0.9c1,0.3,1.9,0.6,2.8,1.1
	c0.9,0.4,1.6,1.1,2.2,1.9c0.6,1,0.9,2.1,0.9,3.3c0,0.9-0.2,1.9-0.6,2.7c-0.4,0.8-0.9,1.5-1.5,2c-0.7,0.6-1.4,1-2.3,1.2
	c-0.9,0.3-1.8,0.4-2.7,0.4c-1.4,0-2.8-0.2-4.1-0.8c-1.3-0.6-2.4-1.5-3.2-2.6L213.4,139.5z"/>
<path class="st0" d="M242.1,121h13.9v1.9h-11.7v8.1h11v1.9h-11v8.8h12.3v1.9h-14.4V121z"/>
</svg>
