<svg id="レイヤー_1" data-name="レイヤー 1" xmlns="http://www.w3.org/2000/svg" viewBox="0 0 256.45 144.23"><defs><style>.cls-1{fill:#fff;}</style></defs><title>logo_atlshowcase</title><rect class="cls-1" x="62" y="0.5" width="28" height="28"/><rect class="cls-1" x="62" y="37.5" width="28" height="28"/><rect class="cls-1" x="62" y="74.5" width="28" height="28"/><rect class="cls-1" x="122" y="0.5" width="28" height="28"/><rect class="cls-1" x="122" y="37.5" width="28" height="28"/><rect class="cls-1" x="122" y="74.5" width="28" height="28"/><rect class="cls-1" x="182" y="0.5" width="28" height="28"/><rect class="cls-1" x="182" y="37.5" width="28" height="28"/><rect class="cls-1" x="182" y="74.5" width="28" height="28"/><rect class="cls-1" x="96" y="0.5" width="80" height="3"/><rect class="cls-1" x="182" y="99.5" width="74" height="3"/><polygon class="cls-1" points="3.71 102.5 0.2 102.5 63 0 65.78 1.54 3.71 102.5"/><rect class="cls-1" x="17" y="74.5" width="73" height="3"/><path class="cls-1" d="M257,364a5.42,5.42,0,0,0,2.16,2.14,6.36,6.36,0,0,0,3,.7,6,6,0,0,0,2-.32,5.06,5.06,0,0,0,1.62-.9,4.23,4.23,0,0,0,1.09-1.39,4.13,4.13,0,0,0,.4-1.84,3.54,3.54,0,0,0-.5-2,4,4,0,0,0-1.33-1.26,9.8,9.8,0,0,0-1.87-.85l-2.14-.7q-1.1-.35-2.14-0.8a7.18,7.18,0,0,1-1.87-1.17,5.2,5.2,0,0,1-1.33-1.81,6.47,6.47,0,0,1-.5-2.69,5.83,5.83,0,0,1,.59-2.67,5.7,5.7,0,0,1,1.6-2,7.14,7.14,0,0,1,2.32-1.18,9.42,9.42,0,0,1,2.75-.4,8.92,8.92,0,0,1,3.44.66,6.53,6.53,0,0,1,2.74,2.19l-1.82,1.31a5.36,5.36,0,0,0-1.87-1.68,5.43,5.43,0,0,0-2.54-.56,6.89,6.89,0,0,0-2,.27,4.89,4.89,0,0,0-1.62.8,4,4,0,0,0-1.1,1.33,4,4,0,0,0-.42,1.89,3.65,3.65,0,0,0,.86,2.61,6.1,6.1,0,0,0,2.16,1.44,23,23,0,0,0,2.82.93,13.61,13.61,0,0,1,2.82,1.07,6.08,6.08,0,0,1,2.16,1.87,5.58,5.58,0,0,1,.86,3.31,6.15,6.15,0,0,1-.58,2.72,6,6,0,0,1-1.55,2,6.72,6.72,0,0,1-2.26,1.23,8.54,8.54,0,0,1-2.66.42,10.68,10.68,0,0,1-4.13-.78,7.55,7.55,0,0,1-3.23-2.64Z" transform="translate(-255 -224.5)"/><path class="cls-1" d="M285.72,345.5h2.11v10H300.5v-10h2.11v22.66H300.5V357.4H287.83v10.75h-2.11V345.5Z" transform="translate(-255 -224.5)"/><path class="cls-1" d="M318.87,356.83a12.81,12.81,0,0,1,.86-4.77,11.35,11.35,0,0,1,2.4-3.76,10.89,10.89,0,0,1,3.7-2.48,13.06,13.06,0,0,1,9.5,0,10.89,10.89,0,0,1,3.7,2.48,11.36,11.36,0,0,1,2.4,3.76,13.63,13.63,0,0,1,0,9.55,11.32,11.32,0,0,1-2.4,3.78,10.7,10.7,0,0,1-3.7,2.46,13.27,13.27,0,0,1-9.5,0,10.69,10.69,0,0,1-3.7-2.46,11.32,11.32,0,0,1-2.4-3.78A12.93,12.93,0,0,1,318.87,356.83Zm2.11,0a11.29,11.29,0,0,0,.67,3.94,9.34,9.34,0,0,0,1.92,3.17,8.88,8.88,0,0,0,3,2.11,10.72,10.72,0,0,0,8,0,8.88,8.88,0,0,0,3-2.11,9.33,9.33,0,0,0,1.92-3.17,11.86,11.86,0,0,0,0-7.87,9.35,9.35,0,0,0-1.92-3.17,8.86,8.86,0,0,0-3-2.11,10.71,10.71,0,0,0-8,0,8.86,8.86,0,0,0-3,2.11,9.35,9.35,0,0,0-1.92,3.17A11.29,11.29,0,0,0,321,356.83Z" transform="translate(-255 -224.5)"/><path class="cls-1" d="M355.61,345.5h2.18l5.63,20.06h0.06l5.73-20.06h2.69l5.73,20.06h0.06l5.63-20.06h2.18l-6.59,22.66h-2.59L370.58,348h-0.06l-5.73,20.16H362.2Z" transform="translate(-255 -224.5)"/><path class="cls-1" d="M418.93,364.61a9.61,9.61,0,0,1-3.78,3.17,11.25,11.25,0,0,1-4.64,1,12.49,12.49,0,0,1-4.75-.88,10.69,10.69,0,0,1-3.7-2.46,11.33,11.33,0,0,1-2.4-3.78,13.63,13.63,0,0,1,0-9.55,11.37,11.37,0,0,1,2.4-3.76,10.89,10.89,0,0,1,3.7-2.48,12.31,12.31,0,0,1,4.75-.9,11.3,11.3,0,0,1,4.3.82,8.56,8.56,0,0,1,3.5,2.74l-1.73,1.44a6.27,6.27,0,0,0-2.7-2.34,8.21,8.21,0,0,0-3.38-.74,9.93,9.93,0,0,0-4,.77,8.86,8.86,0,0,0-3,2.11,9.36,9.36,0,0,0-1.92,3.17,11.87,11.87,0,0,0,0,7.87,9.34,9.34,0,0,0,1.92,3.17,8.88,8.88,0,0,0,3,2.11,10,10,0,0,0,4,.77,8.27,8.27,0,0,0,3.6-.85,8.69,8.69,0,0,0,1.68-1.09,7,7,0,0,0,1.41-1.58Z" transform="translate(-255 -224.5)"/><path class="cls-1" d="M441.27,345.5h2.18L453,368.16h-2.37l-2.46-6h-12l-2.56,6h-2.21Zm1,2.3L437,360.22h10.4Z" transform="translate(-255 -224.5)"/><path class="cls-1" d="M468.37,364a5.42,5.42,0,0,0,2.16,2.14,6.36,6.36,0,0,0,3,.7,6,6,0,0,0,2-.32,5.06,5.06,0,0,0,1.62-.9,4.23,4.23,0,0,0,1.09-1.39,4.13,4.13,0,0,0,.4-1.84,3.55,3.55,0,0,0-.5-2,4,4,0,0,0-1.33-1.26,9.8,9.8,0,0,0-1.87-.85l-2.14-.7q-1.1-.35-2.14-0.8a7.18,7.18,0,0,1-1.87-1.17,5.21,5.21,0,0,1-1.33-1.81,6.46,6.46,0,0,1-.5-2.69,5.82,5.82,0,0,1,.59-2.67,5.7,5.7,0,0,1,1.6-2,7.14,7.14,0,0,1,2.32-1.18,9.41,9.41,0,0,1,2.75-.4,8.92,8.92,0,0,1,3.44.66,6.53,6.53,0,0,1,2.74,2.19l-1.82,1.31a5.36,5.36,0,0,0-1.87-1.68,5.43,5.43,0,0,0-2.54-.56,6.89,6.89,0,0,0-2,.27,4.9,4.9,0,0,0-1.62.8,4,4,0,0,0-1.1,1.33,4,4,0,0,0-.42,1.89,3.65,3.65,0,0,0,.86,2.61,6.1,6.1,0,0,0,2.16,1.44,23.06,23.06,0,0,0,2.82.93,13.61,13.61,0,0,1,2.82,1.07,6.09,6.09,0,0,1,2.16,1.87,5.58,5.58,0,0,1,.86,3.31,6.13,6.13,0,0,1-.58,2.72,6,6,0,0,1-1.55,2,6.72,6.72,0,0,1-2.26,1.23,8.54,8.54,0,0,1-2.66.42,10.68,10.68,0,0,1-4.13-.78,7.56,7.56,0,0,1-3.23-2.64Z" transform="translate(-255 -224.5)"/><path class="cls-1" d="M497.08,345.5h13.86v1.92H499.19v8.06h11v1.92h-11v8.83h12.26v1.92H497.08V345.5Z" transform="translate(-255 -224.5)"/></svg>