# Blender v2.76 (sub 0) OBJ File: 'sawazen.blend'
# www.blender.org
mtllib sawazen.mtl
o Cube_Cube.001
v 1.013094 2.561926 0.000000
v 1.224548 1.013828 0.000000
v 0.721593 0.013828 0.794244
v 0.871566 2.579775 0.820828
v 0.800421 0.013828 -0.453604
v 0.884220 2.528715 -0.448521
v 0.888660 1.013828 1.091324
v 1.065191 1.013828 -0.718742
v 0.920051 0.013828 0.000000
v 1.000000 0.513828 -0.543828
v 0.865389 0.513828 1.000000
v 1.132298 0.513828 0.000000
v 0.580235 1.013828 -1.202797
v 0.500000 2.533166 -0.806234
v 0.500000 0.896269 1.396584
v 0.352521 0.013828 1.016427
v 0.500000 0.013828 -0.755127
v 0.500000 2.585557 1.058234
v 0.676014 3.103805 0.000000
v 0.500000 0.013828 0.000000
v 0.616191 0.513828 1.282858
v 0.500000 0.513828 -1.070171
v 0.359989 0.856704 1.734880
v 0.422796 0.513828 1.612633
v 0.244670 0.925318 2.273961
v 0.288580 0.596915 2.014132
v 0.891172 2.058817 1.000000
v 0.946306 2.058817 -0.520254
v 1.164448 2.058817 0.000000
v 0.500000 2.058817 -1.000000
v 0.500000 2.058817 1.243994
v 1.010738 2.568617 0.500000
v 1.224548 1.013828 0.500000
v 0.924928 0.013828 0.386142
v 1.089534 0.354972 0.400238
v 0.500000 0.013828 0.500000
v 0.475820 3.103805 0.484577
v 1.164448 2.058817 0.500000
v 0.281231 3.967045 0.364071
v 0.164080 4.061002 0.864071
v 0.412022 3.681439 0.000000
v 0.297454 3.584926 0.500000
v 0.453299 3.103805 -0.498909
v 0.691919 2.829936 -0.521229
v 0.209455 0.067868 1.217701
v 0.268390 0.205678 1.394236
v 1.431342 0.016055 0.403059
v 1.592603 0.016055 -0.001566
v 1.481079 0.339662 -0.001566
v 1.417157 0.298295 0.376469
v 1.131047 0.442734 -0.447356
v 0.839415 0.014360 -0.447356
v 1.495808 0.340193 -0.448922
v 1.649946 0.016586 -0.448922
v 1.128965 0.350385 -0.763363
v 0.917915 0.014735 -0.763363
v 1.494923 0.350421 -0.673704
v 1.547747 0.016962 -0.764929
v 1.184176 0.287281 0.480293
v 1.314679 0.514942 -0.000783
v 1.200396 0.014942 -0.000783
v 1.178135 0.014942 0.590496
v 1.313427 0.515473 -0.448139
v 1.199144 0.015473 -0.448139
v 1.312543 0.360956 -0.764146
v 1.291475 0.015848 -0.975899
v 0.889916 1.536322 1.045662
v 1.000000 1.536322 -0.607853
v 1.194498 1.536322 0.000000
v 0.500000 1.536322 -1.033623
v 0.500000 1.536322 1.302292
v 1.194498 1.536322 0.500000
v 0.423329 1.667290 -1.081608
v 0.336336 2.390147 -1.000000
v 0.336336 2.390147 -1.000000
v 0.374280 2.046736 -1.125424
v 0.321296 1.835582 -1.154483
v 0.230242 2.225426 -1.106499
v 0.144886 2.136081 -1.199952
v 0.191262 1.942372 -1.234090
v 0.239305 2.046736 -1.207518
v -1.013094 2.561926 0.000000
v -1.224548 1.013828 0.000000
v 0.000000 1.488498 1.472849
v -0.721593 0.013828 0.794244
v -0.871566 2.579775 0.820828
v -0.800421 0.013828 -0.453604
v -0.884220 2.528715 -0.448521
v 0.000000 1.013828 -1.478087
v 0.000000 2.541057 1.139522
v 0.000000 0.013828 1.000000
v 0.000000 2.533166 -0.989207
v -0.888660 1.013828 1.091324
v 0.000000 0.013828 -1.000000
v -1.065191 1.013828 -0.718742
v -0.920051 0.013828 0.000000
v 0.000000 0.013828 0.000000
v 0.000000 3.103805 -0.734188
v -1.000000 0.513828 -0.543828
v -0.865389 0.513828 1.000000
v 0.000000 0.513828 -1.406001
v 0.000000 0.094672 1.256212
v -1.132298 0.513828 0.000000
v -0.580235 1.013828 -1.202797
v -0.500000 2.533166 -0.806234
v -0.500000 0.896269 1.396584
v -0.352521 0.013828 1.016427
v -0.500000 0.013828 -0.755127
v -0.500000 2.585557 1.058234
v -0.676014 3.103805 0.000000
v -0.500000 0.013828 0.000000
v -0.616191 0.513828 1.282858
v -0.500000 0.513828 -1.070171
v 0.000000 1.098216 1.842084
v 0.000000 0.175062 1.465195
v -0.359989 0.856704 1.734880
v -0.422796 0.513828 1.612633
v 0.000000 1.193564 2.842577
v 0.000000 0.585778 2.376449
v -0.244670 0.925318 2.273961
v -0.288580 0.596915 2.014132
v 0.000000 2.058817 1.330121
v -0.891172 2.058817 1.000000
v -0.946306 2.058817 -0.520254
v -1.164448 2.058817 0.000000
v -0.500000 2.058817 -1.000000
v -0.500000 2.058817 1.243994
v -1.010738 2.568617 0.500000
v 0.000000 0.013828 0.500000
v 0.000000 3.103805 0.726989
v -1.224548 1.013828 0.500000
v -0.924928 0.013828 0.386142
v -1.089534 0.354972 0.400238
v -0.500000 0.013828 0.500000
v -0.475820 3.103805 0.484577
v -1.164448 2.058817 0.500000
v -0.281231 3.967045 0.364071
v 0.000000 4.259074 0.589402
v 0.000000 4.259074 1.177922
v -0.164080 4.061002 0.864071
v 0.000000 3.681439 -0.276381
v -0.412022 3.681439 0.000000
v 0.000000 3.370638 0.706892
v -0.297454 3.584926 0.500000
v -0.453299 3.103805 -0.498909
v -0.691919 2.829936 -0.521229
v 0.000000 1.059739 2.316371
v -0.209455 0.067868 1.217701
v 0.000000 3.839011 0.919482
v -0.268390 0.205678 1.394236
v -1.431342 0.016055 0.403059
v -1.592603 0.016055 -0.001566
v -1.481079 0.339662 -0.001566
v -1.417157 0.298295 0.376469
v -1.131047 0.442734 -0.447356
v -0.839415 0.014360 -0.447356
v -1.495808 0.340193 -0.448922
v -1.649946 0.016586 -0.448922
v -1.128965 0.350385 -0.763363
v -0.917915 0.014735 -0.763363
v -1.494923 0.350421 -0.673704
v -1.547747 0.016962 -0.764929
v -1.184176 0.287281 0.480293
v -1.314679 0.514942 -0.000783
v -1.200396 0.014942 -0.000783
v -1.178135 0.014942 0.590496
v -1.313427 0.515473 -0.448139
v -1.199144 0.015473 -0.448139
v -1.312543 0.360956 -0.764146
v -1.291475 0.015848 -0.975899
v 0.000000 1.773657 1.366859
v 0.000000 1.529935 -1.150836
v -0.889916 1.536322 1.045662
v -1.000000 1.536322 -0.607853
v -1.194498 1.536322 0.000000
v -0.500000 1.536322 -1.033623
v -0.500000 1.536322 1.302292
v -1.194498 1.536322 0.500000
v -0.423329 1.667290 -1.081608
v -0.336336 2.390147 -1.000000
v -0.336336 2.390147 -1.000000
v 0.000000 2.302557 -1.148399
v 0.000000 2.046736 -1.265664
v -0.374280 2.046736 -1.125424
v 0.000000 1.717923 -1.221733
v -0.321296 1.835582 -1.154483
v -0.230242 2.225426 -1.106499
v -0.144886 2.136081 -1.199952
v -0.191262 1.942372 -1.234090
v 0.000000 1.852963 -1.268144
v -0.239305 2.046736 -1.207518
v 0.000000 2.181936 -1.206687
v 0.000000 1.436291 -1.271847
vn 0.661600 -0.391300 -0.639700
vn 0.816300 -0.406500 0.410300
vn 0.870400 0.045400 0.490300
vn 0.000000 -1.000000 0.000000
vn 0.316900 0.387000 -0.865900
vn 0.298800 0.201900 0.932700
vn -0.066600 -0.951500 0.300200
vn 0.651500 0.279700 -0.705300
vn 0.386500 0.767200 -0.511900
vn 0.959800 0.114600 -0.256000
vn 0.893500 -0.388300 -0.225700
vn 0.956700 -0.189300 -0.221000
vn 0.661100 0.576100 0.480800
vn 0.878000 -0.192200 0.438400
vn 0.682200 -0.303700 -0.665100
vn 0.481100 -0.212700 -0.850500
vn 0.624900 -0.041900 0.779500
vn 0.849100 0.528200 -0.003100
vn 0.370700 0.369900 -0.851900
vn 0.536800 -0.529100 0.657200
vn 0.572700 0.097400 0.814000
vn 0.844700 0.484100 -0.228600
vn 0.426100 -0.529100 -0.733800
vn 0.515100 -0.788800 0.335400
vn 0.890600 0.073800 0.448800
vn 0.263600 -0.642200 0.719800
vn 0.762100 -0.394000 0.513800
vn 0.966900 0.008500 0.255100
vn 0.489700 0.869100 0.070500
vn 0.512200 0.291000 0.808000
vn 0.607900 0.300300 -0.735100
vn 0.914700 0.225400 -0.335400
vn 0.690300 0.237500 -0.683400
vn 0.139900 0.346000 0.927700
vn 0.872400 0.222400 0.435300
vn 0.957500 0.288400 0.000300
vn 0.677100 0.684600 0.269900
vn 0.981000 -0.193500 0.012500
vn 0.319800 0.709700 0.627700
vn 0.998400 0.057400 0.000000
vn 0.737000 0.674300 0.046000
vn 0.961100 0.127900 0.244900
vn 0.705900 -0.371200 0.603300
vn 0.449600 0.138400 0.882500
vn 0.851400 0.389100 0.351700
vn 0.465300 0.549800 -0.693700
vn 0.817000 0.508200 -0.272400
vn 0.397800 0.689100 0.605800
vn 0.703100 0.638100 -0.313800
vn 0.842700 0.385100 -0.376200
vn 0.736100 -0.356700 0.575300
vn 0.560000 0.828400 0.014400
vn 0.482600 -0.798500 0.359900
vn -0.011700 -0.967800 0.251500
vn 0.359800 0.624500 -0.693200
vn 0.409400 0.458300 -0.788800
vn 0.661100 0.251400 -0.706900
vn 0.446900 0.452300 -0.771900
vn 0.439800 0.870400 -0.221400
vn 0.011600 -0.790100 0.612900
vn 0.567300 -0.599800 0.564300
vn 0.675200 -0.312600 0.668100
vn 0.684900 -0.667400 0.292300
vn 0.676600 -0.620300 0.396800
vn 0.197400 -0.915000 0.352000
vn 0.537800 0.082800 0.839000
vn 0.225500 -0.216100 -0.950000
vn 0.934100 0.103500 -0.341700
vn 0.686500 0.118500 -0.717400
vn 0.174700 0.115100 0.977900
vn 0.874300 0.045200 0.483200
vn 0.078300 0.589400 0.804000
vn 0.971800 0.114600 0.206200
vn 0.905500 0.327000 0.270600
vn 0.538700 0.063300 0.840100
vn 0.337400 0.795700 -0.503000
vn 0.770100 0.637900 0.000000
vn 0.268600 -0.293300 -0.917500
vn 0.591900 0.051800 -0.804400
vn 0.520600 0.343100 -0.781900
vn 0.238800 0.496700 -0.834400
vn 0.258100 0.660200 -0.705300
vn 0.516600 -0.014500 -0.856100
vn 0.431400 0.460500 -0.775800
vn 0.302500 -0.307500 -0.902200
vn 0.268200 0.490300 -0.829300
vn 0.655700 -0.002400 -0.755000
vn 0.224100 0.314900 -0.922300
vn 0.169600 0.012600 -0.985400
vn 0.166800 0.394200 -0.903800
vn 0.233900 0.137400 -0.962500
vn 0.132200 0.783900 -0.606600
vn 0.675200 0.682900 0.278900
vn 0.741400 -0.153800 0.653200
vn -0.661600 -0.391300 -0.639700
vn -0.816300 -0.406500 0.410300
vn -0.870400 0.045400 0.490300
vn -0.316900 0.387000 -0.865900
vn -0.298800 0.201900 0.932700
vn 0.066600 -0.951500 0.300200
vn -0.651500 0.279700 -0.705300
vn -0.386500 0.767200 -0.511900
vn -0.959800 0.114600 -0.256000
vn -0.893500 -0.388300 -0.225700
vn -0.956700 -0.189300 -0.221000
vn -0.661100 0.576100 0.480800
vn -0.878000 -0.192200 0.438400
vn -0.682200 -0.303700 -0.665100
vn -0.481100 -0.212700 -0.850500
vn -0.624900 -0.041900 0.779500
vn -0.849100 0.528200 -0.003100
vn -0.370700 0.369900 -0.851900
vn -0.536800 -0.529100 0.657200
vn -0.572700 0.097400 0.814000
vn -0.844700 0.484100 -0.228600
vn -0.426100 -0.529100 -0.733800
vn -0.515100 -0.788800 0.335400
vn -0.890600 0.073800 0.448800
vn 1.000000 0.000000 0.000000
vn -0.263600 -0.642200 0.719800
vn -0.762100 -0.394000 0.513800
vn -0.966900 0.008500 0.255100
vn -0.489700 0.869100 0.070500
vn -0.512200 0.291000 0.808000
vn -0.607900 0.300300 -0.735100
vn -0.914700 0.225400 -0.335400
vn -0.690300 0.237500 -0.683400
vn -0.139900 0.346000 0.927700
vn -0.872400 0.222400 0.435300
vn -0.957500 0.288400 0.000300
vn -0.677100 0.684600 0.269900
vn -0.981000 -0.193500 0.012500
vn -0.319800 0.709700 0.627700
vn -0.998400 0.057400 0.000000
vn -0.737000 0.674300 0.046000
vn -0.961100 0.127900 0.244900
vn -0.705900 -0.371200 0.603300
vn -0.449600 0.138400 0.882500
vn -0.851400 0.389100 0.351700
vn -0.465300 0.549800 -0.693700
vn -0.817000 0.508200 -0.272400
vn -0.397800 0.689100 0.605800
vn -0.703100 0.638100 -0.313800
vn -0.842700 0.385100 -0.376200
vn -0.736100 -0.356700 0.575300
vn -0.560000 0.828400 0.014400
vn -0.482600 -0.798500 0.359900
vn 0.011700 -0.967800 0.251500
vn -0.359800 0.624500 -0.693200
vn -0.409400 0.458300 -0.788800
vn -0.661100 0.251400 -0.706900
vn -0.446900 0.452300 -0.771900
vn -0.439800 0.870400 -0.221400
vn -0.011600 -0.790100 0.612900
vn -0.567300 -0.599800 0.564300
vn -0.675200 -0.312600 0.668100
vn -0.684900 -0.667400 0.292300
vn -0.676600 -0.620300 0.396800
vn -0.197400 -0.915000 0.352000
vn -0.537800 0.082800 0.839000
vn -0.225500 -0.216100 -0.950000
vn -0.934100 0.103500 -0.341700
vn -0.686500 0.118500 -0.717400
vn -0.174700 0.115100 0.977900
vn -0.874300 0.045200 0.483200
vn -0.078300 0.589400 0.804000
vn -0.971800 0.114600 0.206200
vn -0.905500 0.327000 0.270600
vn -0.538700 0.063300 0.840100
vn -0.337400 0.795700 -0.503000
vn -0.770100 0.637900 0.000000
vn -0.268600 -0.293300 -0.917500
vn -0.591900 0.051800 -0.804400
vn -0.520600 0.343100 -0.781900
vn -0.238800 0.496700 -0.834400
vn -0.258100 0.660200 -0.705300
vn -0.516600 -0.014500 -0.856100
vn -0.431400 0.460500 -0.775800
vn -0.302500 -0.307500 -0.902200
vn -0.268200 0.490300 -0.829300
vn -0.655700 -0.002400 -0.755000
vn -0.224100 0.314900 -0.922300
vn -0.169600 0.012600 -0.985400
vn -0.166800 0.394200 -0.903800
vn -0.233900 0.137400 -0.962500
vn -0.132200 0.783900 -0.606600
vn -0.675200 0.682900 0.278900
vn -0.741400 -0.153800 0.653200
vn 0.162700 0.874100 0.457800
vn 0.937300 0.206800 0.280600
vn 0.708900 0.705200 0.011500
vn 0.498000 0.214600 0.840200
vn 0.003600 -1.000000 0.000700
vn 0.003000 -1.000000 -0.000300
vn -0.878100 0.476600 0.042800
vn 0.922500 0.378700 0.074800
vn 0.003500 -1.000000 -0.001500
vn 0.532400 0.365800 -0.763400
vn 0.932600 0.317600 -0.171500
vn 0.692700 0.720600 0.030100
vn -0.822000 0.540900 -0.178100
vn -0.209000 0.911200 -0.355000
vn -0.337400 0.382600 -0.860100
vn 0.002600 -1.000000 -0.001000
vn 0.003400 -1.000000 -0.000900
vn 0.004100 -1.000000 0.000100
vn -0.597500 0.312100 0.738600
vn -0.198200 0.977200 -0.076500
vn 0.219600 0.857400 0.465400
vn -0.004100 0.929600 0.368500
vn -0.531800 0.222800 0.817100
vn 0.711900 0.674900 0.194200
vn 0.260700 0.867000 -0.424700
vn -0.162700 0.874100 0.457800
vn -0.937300 0.206800 0.280600
vn -0.708900 0.705200 0.011500
vn -0.498000 0.214600 0.840200
vn -0.003600 -1.000000 0.000700
vn -0.003000 -1.000000 -0.000300
vn 0.878100 0.476600 0.042800
vn -0.922500 0.378700 0.074800
vn -0.003500 -1.000000 -0.001500
vn -0.532400 0.365800 -0.763400
vn -0.932600 0.317600 -0.171500
vn -0.692700 0.720600 0.030100
vn 0.822000 0.540900 -0.178100
vn 0.209000 0.911200 -0.355000
vn 0.337400 0.382600 -0.860100
vn -0.002600 -1.000000 -0.001000
vn -0.003400 -1.000000 -0.000900
vn -0.004100 -1.000000 0.000100
vn 0.597500 0.312100 0.738600
vn 0.198200 0.977200 -0.076500
vn -0.219600 0.857400 0.465400
vn 0.004100 0.929600 0.368500
vn 0.531800 0.222800 0.817100
vn -0.711900 0.674900 0.194200
vn -0.260700 0.867000 -0.424700
usemtl Material.002
s off
f 22//1 10//1 5//1 17//1
f 35//2 11//2 3//2 34//2
f 72//3 67//3 7//3 33//3
f 20//4 17//4 5//4
f 14//5 92//5 98//5
f 71//6 171//6 84//6 15//6
f 102//7 91//7 45//7
f 70//8 68//8 8//8 13//8
f 141//9 138//9 39//9
f 36//4 20//4 9//4 34//4
f 68//10 69//10 2//10 8//10
f 10//11 12//11 9//11 5//11
f 8//12 2//12 12//12 10//12
f 15//13 84//13 114//13 23//13
f 33//14 7//14 11//14 35//14
f 13//15 8//15 10//15 22//15
f 89//16 13//16 22//16 101//16
f 7//17 15//17 21//17
f 129//4 97//4 20//4 36//4
f 32//18 1//18 19//18
f 70//19 13//19 89//19 193//19
f 11//20 21//20 16//20 3//20
f 67//21 71//21 15//21 7//21
f 19//22 6//22 44//22
f 97//4 94//4 17//4 20//4
f 101//23 22//23 17//23 94//23
f 115//24 24//24 26//24
f 21//25 15//25 23//25 24//25
f 46//26 24//26 115//26
f 25//27 118//27 119//27
f 24//28 23//28 25//28 26//28
f 114//29 147//29 25//29
f 4//30 18//30 31//30 27//30
f 14//31 30//31 74//31
f 6//32 1//32 29//32 28//32
f 14//33 6//33 28//33 30//33
f 18//34 90//34 122//34 31//34
f 32//35 4//35 27//35 38//35
f 1//36 32//36 38//36 29//36
f 4//37 32//37 37//37
f 91//4 129//4 36//4 16//4
f 2//38 33//38 35//38 12//38
f 16//4 36//4 34//4 3//4
f 18//39 37//39 130//39
f 69//40 72//40 33//40 2//40
f 40//41 39//41 138//41
f 42//42 41//42 39//42
f 149//43 40//43 139//43
f 130//44 37//44 42//44
f 37//45 19//45 41//45
f 98//46 141//46 41//46
f 1//47 6//47 19//47
f 18//48 4//48 37//48
f 19//49 44//49 43//49
f 19//50 43//50 41//50
f 26//51 25//51 119//51
f 9//4 20//4 5//4
f 23//52 114//52 25//52
f 119//53 115//53 26//53
f 91//54 16//54 45//54
f 43//55 98//55 41//55
f 14//56 98//56 43//56
f 6//57 14//57 44//57
f 44//58 14//58 43//58
f 147//59 118//59 25//59
f 46//60 102//60 45//60
f 16//61 21//61 45//61
f 143//62 42//62 40//62 149//62
f 21//63 46//63 45//63
f 46//64 21//64 24//64
f 102//65 46//65 115//65
f 29//40 38//40 72//40 69//40
f 27//66 31//66 71//66 67//66
f 70//67 172//67 73//67
f 28//68 29//68 69//68 68//68
f 30//69 28//69 68//69 70//69
f 31//70 122//70 171//70 71//70
f 38//71 27//71 67//71 72//71
f 90//72 18//72 130//72
f 40//73 42//73 39//73
f 42//74 37//74 41//74
f 143//75 130//75 42//75
f 41//76 141//76 39//76
f 139//77 40//77 138//77
f 73//78 172//78 185//78 77//78
f 30//79 70//79 73//79
f 74//80 30//80 76//80 78//80
f 92//81 74//81 78//81 182//81
f 92//82 14//82 74//82
f 81//83 76//83 77//83 80//83
f 76//84 81//84 79//84 78//84
f 185//85 190//85 80//85 77//85
f 192//86 182//86 78//86 79//86
f 30//87 73//87 77//87 76//87
f 81//88 183//88 79//88
f 190//89 183//89 80//89
f 183//90 192//90 79//90
f 183//91 81//91 80//91
f 172//92 70//92 193//92
f 37//93 32//93 19//93
f 11//94 7//94 21//94
f 113//95 108//95 87//95 99//95
f 133//96 132//96 85//96 100//96
f 178//97 131//97 93//97 173//97
f 111//4 87//4 108//4
f 105//98 98//98 92//98
f 177//99 106//99 84//99 171//99
f 102//100 148//100 91//100
f 176//101 104//101 95//101 174//101
f 141//102 137//102 138//102
f 134//4 132//4 96//4 111//4
f 174//103 95//103 83//103 175//103
f 99//104 87//104 96//104 103//104
f 95//105 99//105 103//105 83//105
f 106//106 116//106 114//106 84//106
f 131//107 133//107 100//107 93//107
f 104//108 113//108 99//108 95//108
f 89//109 101//109 113//109 104//109
f 93//110 112//110 106//110
f 129//4 134//4 111//4 97//4
f 128//111 110//111 82//111
f 176//112 193//112 89//112 104//112
f 100//113 85//113 107//113 112//113
f 173//114 93//114 106//114 177//114
f 110//115 146//115 88//115
f 97//4 111//4 108//4 94//4
f 101//116 94//116 108//116 113//116
f 115//117 121//117 117//117
f 112//118 117//118 116//118 106//118
f 84//119 114//119 115//119 102//119
f 150//120 115//120 117//120
f 120//121 119//121 118//121
f 114//119 147//119 118//119 119//119 115//119
f 117//122 121//122 120//122 116//122
f 114//123 120//123 147//123
f 86//124 123//124 127//124 109//124
f 105//125 180//125 126//125
f 88//126 124//126 125//126 82//126
f 105//127 126//127 124//127 88//127
f 109//128 127//128 122//128 90//128
f 128//129 136//129 123//129 86//129
f 82//130 125//130 136//130 128//130
f 86//131 135//131 128//131
f 91//4 107//4 134//4 129//4
f 83//132 103//132 133//132 131//132
f 107//4 85//4 132//4 134//4
f 109//133 130//133 135//133
f 175//134 83//134 131//134 178//134
f 140//135 138//135 137//135
f 141//119 138//119 139//119 149//119 143//119
f 144//136 137//136 142//136
f 149//137 139//137 140//137
f 130//138 144//138 135//138
f 135//139 142//139 110//139
f 98//119 141//119 143//119 130//119
f 98//140 142//140 141//140
f 82//141 110//141 88//141
f 109//142 135//142 86//142
f 110//143 145//143 146//143
f 110//144 142//144 145//144
f 121//145 119//145 120//145
f 96//4 87//4 111//4
f 116//146 120//146 114//146
f 119//147 121//147 115//147
f 91//148 148//148 107//148
f 145//149 142//149 98//149
f 105//150 145//150 98//150
f 88//151 146//151 105//151
f 146//152 145//152 105//152
f 147//153 120//153 118//153
f 150//154 148//154 102//154
f 107//155 148//155 112//155
f 143//156 149//156 140//156 144//156
f 112//157 148//157 150//157
f 150//158 117//158 112//158
f 102//159 115//159 150//159
f 125//134 175//134 178//134 136//134
f 123//160 173//160 177//160 127//160
f 176//161 179//161 172//161
f 124//162 174//162 175//162 125//162
f 126//163 176//163 174//163 124//163
f 127//164 177//164 171//164 122//164
f 136//165 178//165 173//165 123//165
f 90//166 130//166 109//166
f 140//167 137//167 144//167
f 144//168 142//168 135//168
f 143//169 144//169 130//169
f 142//170 137//170 141//170
f 139//171 138//171 140//171
f 179//172 186//172 185//172 172//172
f 126//173 179//173 176//173
f 180//174 187//174 184//174 126//174
f 92//175 182//175 187//175 180//175
f 92//176 180//176 105//176
f 191//177 189//177 186//177 184//177
f 184//178 187//178 188//178 191//178
f 185//179 186//179 189//179 190//179
f 192//180 188//180 187//180 182//180
f 126//181 184//181 186//181 179//181
f 191//182 188//182 183//182
f 190//183 189//183 183//183
f 183//184 188//184 192//184
f 183//185 189//185 191//185
f 172//186 193//186 176//186
f 135//187 110//187 128//187
f 100//188 112//188 93//188
usemtl Material.003
f 60//189 59//189 50//189
f 49//190 50//190 47//190 48//190
f 60//191 49//191 53//191 63//191
f 59//192 62//192 47//192 50//192
f 62//193 61//193 48//193 47//193
f 64//194 52//194 56//194 66//194
f 9//195 12//195 51//195 52//195
f 49//196 48//196 54//196 53//196
f 61//197 9//197 52//197 64//197
f 66//198 65//198 57//198 58//198
f 53//199 54//199 58//199 57//199
f 63//200 53//200 57//200
f 52//201 51//201 55//201 56//201
f 51//202 63//202 65//202 55//202
f 56//203 55//203 65//203 66//203
f 48//204 61//204 64//204 54//204
f 54//205 64//205 66//205 58//205
f 34//206 9//206 61//206 62//206
f 34//207 62//207 59//207
f 12//208 60//208 63//208 51//208
f 35//209 59//209 60//209
f 12//210 35//210 60//210
f 35//211 34//211 59//211
f 49//212 60//212 50//212
f 65//213 63//213 57//213
f 164//214 154//214 163//214
f 153//215 152//215 151//215 154//215
f 164//216 167//216 157//216 153//216
f 163//217 154//217 151//217 166//217
f 166//218 151//218 152//218 165//218
f 168//219 170//219 160//219 156//219
f 96//220 156//220 155//220 103//220
f 153//221 157//221 158//221 152//221
f 165//222 168//222 156//222 96//222
f 170//223 162//223 161//223 169//223
f 157//224 161//224 162//224 158//224
f 167//225 161//225 157//225
f 156//226 160//226 159//226 155//226
f 155//227 159//227 169//227 167//227
f 160//228 170//228 169//228 159//228
f 152//229 158//229 168//229 165//229
f 158//230 162//230 170//230 168//230
f 132//231 166//231 165//231 96//231
f 132//232 163//232 166//232
f 103//233 155//233 167//233 164//233
f 133//234 164//234 163//234
f 103//235 164//235 133//235
f 133//236 163//236 132//236
f 153//237 154//237 164//237
f 169//238 161//238 167//238
l 74 75
l 180 181
